# xmcd
#
# Track frame offsets: 
#        187
#        18197
#        19620
#        38762
#        42665
#        58742
#        79572
#        97887
#        120130
#        140980
#        159122
#        176930
#        196220
#        219530
#        223422
#        240892
#        261250
#        281870
#
# Disc length: 3989 seconds
#
# Revision: 5
# Processed by: cddbd v1.5.2PL0 Copyright (c) Steve Scherf et al.
# Submitted via: ExactAudioCopy v1.3
#
DISCID=fb0f9312
DTITLE=TLC - FanMail
DYEAR=1999
DGENRE=R&B
TTITLE0=FanMail
TTITLE1=The Vic-E Interpretation (Interlude)
TTITLE2=Silly  Ho
TTITLE3=Whispering Playa (Interlude)
TTITLE4=No Scrubs
TTITLE5=I'm Good At Being Bad
TTITLE6=If They Knew
TTITLE7=I Miss You So Much
TTITLE8=Unpretty
TTITLE9=My Life
TTITLE10=Shout
TTITLE11=Come On Down
TTITLE12=Dear Lie
TTITLE13=Communicate (Interlude)
TTITLE14=Lovesick
TTITLE15=Automatic
TTITLE16=Don't Pull Out On Me Yet
TTITLE17=U In Me (JP Bonus Track)
EXTD=YEAR: 2001
EXTT0=
EXTT1=
EXTT2=
EXTT3=
EXTT4=
EXTT5=
EXTT6=
EXTT7=
EXTT8=
EXTT9=
EXTT10=
EXTT11=
EXTT12=
EXTT13=
EXTT14=
EXTT15=
EXTT16=
EXTT17=
PLAYORDER=
